<svg width="800" height="600" xmlns="http://www.w3.org/2000/svg">
  <!-- 背景 -->
  <rect width="800" height="600" fill="#f2f3f5"/>
  
  <!-- 主容器 -->
  <rect x="20" y="20" width="760" height="560" rx="8" fill="white" stroke="#e5e6eb" stroke-width="1"/>
  
  <!-- 顶部导航栏 -->
  <rect x="20" y="20" width="760" height="56" rx="8" ry="8" fill="white" stroke="#e5e6eb" stroke-width="1"/>
  <rect x="20" y="20" width="760" height="56" fill="white"/>
  
  <!-- 左侧：Logo和标题 -->
  <rect x="30" y="28" width="32" height="32" rx="4" fill="#1677ff"/>
  <text x="46" y="48" font-family="Inter, sans-serif" font-size="16" font-weight="bold" fill="white" text-anchor="middle">聊</text>
  <text x="72" y="48" font-family="Inter, sans-serif" font-size="18" font-weight="600" fill="#1d2129">局域网聊天</text>
  
  <!-- 右侧：功能按钮 -->
  <circle cx="700" cy="48" r="20" fill="#f2f3f5"/>
  <text x="700" y="52" font-family="Font Awesome, sans-serif" font-size="16" fill="#4e5969" text-anchor="middle">🔔</text>
  <circle cx="700" cy="48" r="3" fill="#f5222d"/>
  
  <circle cx="735" cy="48" r="20" fill="#f2f3f5"/>
  <text x="735" y="52" font-family="Font Awesome, sans-serif" font-size="16" fill="#4e5969" text-anchor="middle">⚙️</text>
  
  <circle cx="770" cy="48" r="20" fill="white" stroke="#e5e6eb" stroke-width="1"/>
  <circle cx="770" cy="48" r="16" fill="#1677ff"/>
  <text x="770" y="52" font-family="Inter, sans-serif" font-size="14" font-weight="500" fill="white" text-anchor="middle">用户</text>
  
  <!-- 主要内容区域 -->
  <rect x="20" y="76" width="760" height="504" fill="#f7f8fa"/>
  
  <!-- 侧边栏 -->
  <rect x="20" y="76" width="250" height="504" fill="white" stroke="#e5e6eb" stroke-width="1"/>
  
  <!-- 侧边栏搜索框 -->
  <rect x="30" y="86" width="230" height="36" rx="18" fill="#f2f3f5"/>
  <text x="45" y="108" font-family="Font Awesome, sans-serif" font-size="14" fill="#4e5969">🔍</text>
  <text x="70" y="108" font-family="Inter, sans-serif" font-size="14" fill="#999">搜索联系人...</text>
  
  <!-- 侧边栏标签 -->
  <rect x="20" y="132" width="83" height="40" fill="#f2f3f5"/>
  <rect x="20" y="160" width="83" height="2" fill="#1677ff"/>
  <text x="30" y="158" font-family="Inter, sans-serif" font-size="14" font-weight="500" fill="#1677ff">💬 聊天</text>
  
  <rect x="103" y="132" width="83" height="40" fill="white"/>
  <text x="113" y="158" font-family="Inter, sans-serif" font-size="14" fill="#4e5969">👥 联系人</text>
  
  <rect x="186" y="132" width="84" height="40" fill="white"/>
  <text x="196" y="158" font-family="Inter, sans-serif" font-size="14" fill="#4e5969">⭐ 收藏</text>
  
  <!-- 聊天列表项 - 活跃 -->
  <rect x="20" y="172" width="250" height="72" fill="rgba(22, 119, 255, 0.05)"/>
  <rect x="30" y="180" width="48" height="48" rx="24" fill="#1677ff"/>
  <text x="54" y="208" font-family="Inter, sans-serif" font-size="20" font-weight="500" fill="white" text-anchor="middle">张三</text>
  <circle cx="78" cy="220" r="6" fill="#00b42a" stroke="white" stroke-width="2"/>
  <text x="90" y="198" font-family="Inter, sans-serif" font-size="14" font-weight="500" fill="#1d2129">张三</text>
  <text x="90" y="218" font-family="Inter, sans-serif" font-size="13" fill="#1677ff">你：好的，我明白了</text>
  <text x="240" y="198" font-family="Inter, sans-serif" font-size="12" fill="#4e5969" text-anchor="end">10:23</text>
  
  <!-- 聊天列表项 - 未读 -->
  <rect x="20" y="244" width="250" height="72" fill="white" stroke="#e5e6eb" stroke-width="0.5"/>
  <rect x="30" y="252" width="48" height="48" rx="24" fill="#1677ff"/>
  <text x="54" y="280" font-family="Inter, sans-serif" font-size="20" font-weight="500" fill="white" text-anchor="middle">李四</text>
  <circle cx="78" cy="292" r="6" fill="#00b42a" stroke="white" stroke-width="2"/>
  <text x="90" y="270" font-family="Inter, sans-serif" font-size="14" font-weight="500" fill="#1d2129">李四</text>
  <text x="90" y="290" font-family="Inter, sans-serif" font-size="13" fill="#4e5969">项目进度报告已经发送，请查收</text>
  <text x="240" y="270" font-family="Inter, sans-serif" font-size="12" fill="#4e5969" text-anchor="end">昨天</text>
  <rect x="230" y="258" width="20" height="20" rx="10" fill="#1677ff"/>
  <text x="240" y="271" font-family="Inter, sans-serif" font-size="12" font-weight="500" fill="white" text-anchor="middle">2</text>
  
  <!-- 聊天列表项 - 普通 -->
  <rect x="20" y="316" width="250" height="72" fill="white" stroke="#e5e6eb" stroke-width="0.5"/>
  <rect x="30" y="324" width="48" height="48" rx="24" fill="#1677ff"/>
  <text x="54" y="352" font-family="Inter, sans-serif" font-size="20" font-weight="500" fill="white" text-anchor="middle">王五</text>
  <text x="90" y="342" font-family="Inter, sans-serif" font-size="14" font-weight="500" fill="#1d2129">王五</text>
  <text x="90" y="362" font-family="Inter, sans-serif" font-size="13" fill="#4e5969">周末一起去看电影吗？</text>
  <text x="240" y="342" font-family="Inter, sans-serif" font-size="12" fill="#4e5969" text-anchor="end">周一</text>
  
  <!-- 新聊天按钮 -->
  <rect x="30" y="544" width="230" height="40" rx="8" fill="#1677ff"/>
  <text x="145" y="568" font-family="Inter, sans-serif" font-size="14" font-weight="500" fill="white" text-anchor="middle">➕ 新聊天</text>
  
  <!-- 聊天主区域 -->
  <rect x="270" y="76" width="510" height="504" fill="#f7f8fa"/>
  
  <!-- 聊天头部 -->
  <rect x="270" y="76" width="510" height="56" fill="white" stroke="#e5e6eb" stroke-width="1"/>
  <rect x="280" y="84" width="40" height="40" rx="20" fill="#1677ff"/>
  <text x="300" y="108" font-family="Inter, sans-serif" font-size="18" font-weight="500" fill="white" text-anchor="middle">张三</text>
  <circle cx="320" cy="116" r="5" fill="#00b42a" stroke="white" stroke-width="2"/>
  <text x="330" y="100" font-family="Inter, sans-serif" font-size="14" font-weight="500" fill="#1d2129">张三</text>
  <text x="330" y="118" font-family="Inter, sans-serif" font-size="12" fill="#00b42a">在线</text>
  
  <circle cx="740" cy="104" r="20" fill="#f2f3f5"/>
  <text x="740" y="108" font-family="Font Awesome, sans-serif" font-size="16" fill="#4e5969" text-anchor="middle">📞</text>
  
  <circle cx="770" cy="104" r="20" fill="#f2f3f5"/>
  <text x="770" y="108" font-family="Font Awesome, sans-serif" font-size="16" fill="#4e5969" text-anchor="middle">🎥</text>
  
  <!-- 聊天消息区域 -->
  <rect x="280" y="142" width="490" height="340" fill="#f7f8fa"/>
  
  <!-- 日期分隔线 -->
  <rect x="380" y="152" width="110" height="24" rx="12" fill="#e5e6eb"/>
  <text x="435" y="169" font-family="Inter, sans-serif" font-size="12" fill="#4e5969" text-anchor="middle">今天</text>
  
  <!-- 对方消息 -->
  <rect x="280" y="186" width="32" height="32" rx="16" fill="#1677ff"/>
  <text x="296" y="204" font-family="Inter, sans-serif" font-size="14" font-weight="500" fill="white" text-anchor="middle">张三</text>
  <rect x="322" y="176" width="250" height="40" rx="18" ry="18" fill="white" stroke="#e5e6eb" stroke-width="1"/>
  <text x="337" y="199" font-family="Inter, sans-serif" font-size="14" fill="#1d2129">早上好！今天的会议几点开始？</text>
  <text x="322" y="230" font-family="Inter, sans-serif" font-size="11" fill="#4e5969">09:15</text>
  
  <!-- 对方消息2 -->
  <rect x="322" y="240" width="150" height="40" rx="18" ry="18" fill="white" stroke="#e5e6eb" stroke-width="1"/>
  <text x="337" y="263" font-family="Inter, sans-serif" font-size="14" fill="#1d2129">需要准备什么材料吗？</text>
  <text x="322" y="280" font-family="Inter, sans-serif" font-size="11" fill="#4e5969">09:16</text>
  
  <!-- 自己消息 -->
  <rect x="640" y="290" width="130" height="40" rx="18" ry="18" fill="#00b42a"/>
  <text x="648" y="313" font-family="Inter, sans-serif" font-size="14" fill="white">会议10点开始，在三楼会议室</text>
  <text x="640" y="330" font-family="Inter, sans-serif" font-size="11" fill="#4e5969" text-anchor="end">09:20</text>
  
  <!-- 自己消息2 -->
  <rect x="580" y="340" width="190" height="40" rx="18" ry="18" fill="#00b42a"/>
  <text x="588" y="363" font-family="Inter, sans-serif" font-size="14" fill="white">需要准备项目进度报告和演示PPT</text>
  <text x="580" y="380" font-family="Inter, sans-serif" font-size="11" fill="#4e5969" text-anchor="end">09:21</text>
  
  <!-- 输入区域 -->
  <rect x="270" y="518" width="510" height="62" fill="white" stroke="#e5e6eb" stroke-width="1"/>
  <rect x="280" y="528" width="430" height="42" rx="21" fill="#f2f3f5"/>
  <text x="300" y="552" font-family="Inter, sans-serif" font-size="14" fill="#999">输入消息...</text>
  <rect x="720" y="528" width="60" height="42" rx="21" fill="#1677ff"/>
  <text x="750" y="552" font-family="Inter, sans-serif" font-size="14" font-weight="500" fill="white" text-anchor="middle">发送</text>
  
  <!-- 输入工具栏 -->
  <text x="285" y="522" font-family="Font Awesome, sans-serif" font-size="16" fill="#4e5969">😊 📷 📎</text>
</svg>